<svg width="526" height="740" viewBox="0 0 526 740" fill="none" xmlns="http://www.w3.org/2000/svg">
<path d="M82.5306 149.541C82.5306 127.449 64.622 109.541 42.5306 109.541C20.4392 109.541 2.53058 127.449 2.53058 149.541H42.5306H82.5306ZM42.5306 149.641H2.53058V151.768L2.75625 153.884L42.5306 149.641ZM40.8171 355.541L1.11338 360.4L1.11549 360.417L1.11761 360.435L40.8171 355.541ZM42.5306 369.441H82.5306V366.985L82.2301 364.547L42.5306 369.441ZM2.53058 369.541C2.53058 391.632 20.4392 409.541 42.5306 409.541C64.622 409.541 82.5306 391.632 82.5306 369.541H42.5306H2.53058ZM42.5306 149.541H2.53058V149.641H42.5306H82.5306V149.541H42.5306ZM42.5306 149.641L2.75625 153.884C7.23679 195.885 8.03479 224.465 6.30719 241.507L46.1032 245.541L85.8993 249.575C88.4969 223.95 86.9132 188.596 82.3049 145.398L42.5306 149.641ZM46.1032 245.541L6.30719 241.507C4.0877 263.401 2.33527 285.298 1.05016 307.198L40.9815 309.541L80.9128 311.884C82.1314 291.117 83.7935 270.348 85.8993 249.575L46.1032 245.541ZM40.9815 309.541L1.05016 307.198C-0.211014 328.689 -0.505558 347.172 1.11338 360.4L40.8171 355.541L80.5209 350.681C79.8552 345.242 79.6702 333.059 80.9128 311.884L40.9815 309.541ZM40.8171 355.541L1.11761 360.435L2.83107 374.335L42.5306 369.441L82.2301 364.547L80.5166 350.647L40.8171 355.541ZM42.5306 369.441H2.53058V369.541H42.5306H82.5306V369.441H42.5306Z" fill="white"/>
<path d="M522.531 369.541C522.531 347.449 504.622 329.541 482.531 329.541C460.439 329.541 442.531 347.449 442.531 369.541L482.531 369.541L522.531 369.541ZM482.531 369.641L522.405 372.809L522.531 371.227L522.531 369.641L482.531 369.641ZM478.68 575.541L440.112 586.149L440.122 586.184L440.132 586.22L478.68 575.541ZM482.531 589.441L522.531 589.441L522.531 584.003L521.079 578.762L482.531 589.441ZM442.531 589.541C442.531 611.632 460.439 629.541 482.531 629.541C504.622 629.541 522.531 611.632 522.531 589.541L482.531 589.541L442.531 589.541ZM482.531 369.541L442.531 369.541L442.531 369.641L482.531 369.641L522.531 369.641L522.531 369.541L482.531 369.541ZM482.531 369.641L442.656 366.473C439.209 409.853 439.038 445.99 443.747 472.53L483.132 465.541L522.516 458.552C519.655 442.425 519.082 414.628 522.405 372.809L482.531 369.641ZM483.132 465.541L443.747 472.53C446.612 488.676 446.295 504.735 442.741 521.004L481.82 529.541L520.898 538.077C526.665 511.68 527.222 485.072 522.516 458.552L483.132 465.541ZM481.82 529.541L442.741 521.004C438.022 542.608 434.713 566.52 440.112 586.149L478.68 575.541L517.248 564.933C517.647 566.386 517.072 565.261 517.447 559.765C517.794 554.676 518.828 547.556 520.898 538.077L481.82 529.541ZM478.68 575.541L440.132 586.22L443.982 600.12L482.531 589.441L521.079 578.762L517.228 564.862L478.68 575.541ZM482.531 589.441L442.531 589.441L442.531 589.541L482.531 589.541L522.531 589.541L522.531 589.441L482.531 589.441Z" fill="white"/>
<path d="M60.3581 553.733C40.5822 543.887 16.569 551.937 6.72307 571.713C-3.12283 591.489 4.92707 615.502 24.703 625.348L42.5306 589.541L60.3581 553.733ZM42.6201 589.585L24.7925 625.393L25.0017 625.497L25.212 625.598L42.6201 589.585ZM262.829 698.473L295.609 721.397L297.312 718.961L298.636 716.301L262.829 698.473ZM262.441 699.028L229.661 676.104L203.058 714.146L244.614 734.835L262.441 699.028ZM244.703 734.88C264.479 744.726 288.492 736.676 298.338 716.9C308.184 697.124 300.134 673.111 280.358 663.265L262.531 699.072L244.703 734.88ZM42.5306 589.541L24.703 625.348L24.7925 625.393L42.6201 589.585L60.4477 553.778L60.3581 553.733L42.5306 589.541ZM42.6201 589.585L25.212 625.598C63.3112 644.015 90.2535 658.168 106.885 668.247L127.616 634.038L148.347 599.83C128.364 587.72 98.6426 572.237 60.0282 553.572L42.6201 589.585ZM127.616 634.038L106.885 668.247C127.098 680.496 148.199 690.986 170.168 699.706L184.925 662.528L199.683 625.35C181.854 618.273 164.75 609.77 148.347 599.83L127.616 634.038ZM184.925 662.528L170.168 699.706C189.315 707.306 206.394 714.777 221.467 722.102L238.95 686.125L256.434 650.148C239.271 641.808 220.334 633.547 199.683 625.35L184.925 662.528ZM238.95 686.125L221.467 722.102C229.459 725.986 235.114 728.796 238.635 730.617C239.493 731.061 240.157 731.411 240.65 731.677C241.172 731.958 241.366 732.07 241.332 732.051C241.31 732.038 241.127 731.931 240.835 731.748C240.594 731.597 239.951 731.19 239.111 730.584C238.672 730.267 236.333 728.601 233.774 725.908C232.659 724.735 229.526 721.35 226.938 716.096C224.661 711.47 218.865 697.028 227.021 680.646L262.829 698.473L298.636 716.301C306.805 699.893 301.006 685.42 298.709 680.754C296.102 675.46 292.933 672.028 291.768 670.802C289.106 668 286.6 666.198 285.931 665.715C284.055 664.361 282.315 663.34 281.565 662.903C279.704 661.821 277.504 660.654 275.382 659.556C270.944 657.261 264.559 654.097 256.434 650.148L238.95 686.125ZM262.829 698.473L230.049 675.55L229.661 676.104L262.441 699.028L295.221 721.952L295.609 721.397L262.829 698.473ZM262.441 699.028L244.614 734.835L244.703 734.88L262.531 699.072L280.358 663.265L280.269 663.22L262.441 699.028Z" fill="white"/>
<path d="M280.358 4.20128C260.582 -5.64462 236.569 2.40528 226.723 22.1812C216.877 41.9572 224.927 65.9704 244.703 75.8163L262.531 40.0088L280.358 4.20128ZM262.62 40.0534L244.793 75.8609L245.002 75.965L245.212 76.0667L262.62 40.0534ZM482.829 148.942L515.609 171.865L517.312 169.43L518.636 166.769L482.829 148.942ZM482.441 149.496L449.661 126.572L423.058 164.614L464.614 185.304L482.441 149.496ZM464.703 185.348C484.479 195.194 508.492 187.144 518.338 167.368C528.184 147.592 520.134 123.579 500.358 113.733L482.531 149.541L464.703 185.348ZM262.531 40.0088L244.703 75.8163L244.793 75.8609L262.62 40.0534L280.448 4.24585L280.358 4.20128L262.531 40.0088ZM262.62 40.0534L245.212 76.0667C283.311 94.483 310.253 108.636 326.885 118.715L347.616 84.5067L368.347 50.2982C348.364 38.1881 318.643 22.7055 280.028 4.04005L262.62 40.0534ZM347.616 84.5067L326.885 118.715C347.098 130.965 368.199 141.454 390.168 150.175L404.925 112.996L419.683 75.8182C401.854 68.7415 384.75 60.2383 368.347 50.2982L347.616 84.5067ZM404.925 112.996L390.168 150.175C409.315 157.775 426.394 165.245 441.467 172.57L458.95 136.593L476.434 100.617C459.271 92.2759 440.334 84.0153 419.683 75.8182L404.925 112.996ZM458.95 136.593L441.467 172.57C449.459 176.454 455.114 179.265 458.635 181.085C459.493 181.529 460.157 181.879 460.65 182.145C461.172 182.426 461.366 182.538 461.332 182.519C461.31 182.506 461.127 182.399 460.835 182.217C460.594 182.066 459.951 181.658 459.111 181.052C458.672 180.735 456.333 179.07 453.774 176.376C452.659 175.204 449.526 171.818 446.938 166.564C444.661 161.938 438.865 147.497 447.021 131.114L482.829 148.942L518.636 166.769C526.805 150.362 521.006 135.888 518.709 131.223C516.102 125.929 512.933 122.497 511.768 121.27C509.106 118.469 506.6 116.666 505.931 116.183C504.055 114.829 502.315 113.808 501.565 113.372C499.704 112.289 497.504 111.122 495.382 110.025C490.944 107.729 484.559 104.565 476.434 100.617L458.95 136.593ZM482.829 148.942L450.049 126.018L449.661 126.572L482.441 149.496L515.221 172.42L515.609 171.865L482.829 148.942ZM482.441 149.496L464.614 185.304L464.703 185.348L482.531 149.541L500.358 113.733L500.269 113.689L482.441 149.496Z" fill="white"/>
<path d="M280.358 224.201C260.582 214.355 236.569 222.405 226.723 242.181C216.877 261.957 224.927 285.97 244.703 295.816L262.531 260.009L280.358 224.201ZM262.62 260.053L284.31 226.445L282.44 225.238L280.448 224.246L262.62 260.053ZM404.423 334.005L390.565 371.527L404.423 334.005ZM483.561 367.47L518.565 386.828L518.984 386.072L519.369 385.298L483.561 367.47ZM482.441 369.496L447.437 350.138L427.224 386.689L464.614 405.304L482.441 369.496ZM464.703 405.348C484.479 415.194 508.492 407.144 518.338 387.368C528.184 367.592 520.134 343.579 500.358 333.733L482.531 369.541L464.703 405.348ZM262.531 260.009L244.703 295.816L244.793 295.861L262.62 260.053L280.448 224.246L280.358 224.201L262.531 260.009ZM262.62 260.053L240.93 293.662C277.238 317.094 306.51 334.46 327.978 344.875L345.436 308.886L362.895 272.897C345.973 264.688 320.033 249.499 284.31 226.445L262.62 260.053ZM345.436 308.886L327.978 344.875C348.354 354.759 369.218 363.643 390.565 371.527L404.423 334.005L418.282 296.482C399.369 289.497 380.909 281.635 362.895 272.897L345.436 308.886ZM404.423 334.005L390.565 371.527C410.378 378.845 428.378 385.786 444.587 392.352L459.605 355.278L474.623 318.205C457.516 311.275 438.728 304.034 418.282 296.482L404.423 334.005ZM459.605 355.278L444.587 392.352C452.685 395.633 457.543 397.814 459.945 399.036C461.461 399.808 460.439 399.416 458.534 397.994C457.893 397.516 454.364 394.926 450.982 390.242C448.398 386.664 437.67 369.896 447.754 349.643L483.561 367.47L519.369 385.298C529.624 364.7 518.797 347.503 515.843 343.412C512.091 338.215 507.921 335.029 506.368 333.87C502.637 331.087 498.707 328.999 496.23 327.738C490.647 324.897 483.183 321.672 474.623 318.205L459.605 355.278ZM483.561 367.47L448.557 348.113L447.437 350.138L482.441 369.496L517.445 388.854L518.565 386.828L483.561 367.47ZM482.441 369.496L464.614 405.304L464.703 405.348L482.531 369.541L500.358 333.733L500.269 333.689L482.441 369.496Z" fill="white"/>
<path d="M60.3581 333.733C40.5822 323.887 16.569 331.937 6.72307 351.713C-3.12283 371.489 4.92707 395.502 24.703 405.348L42.5306 369.541L60.3581 333.733ZM42.6201 369.585L63.5961 335.526L62.0613 334.581L60.4477 333.778L42.6201 369.585ZM262.824 478.483L295.55 501.483L297.286 499.013L298.632 496.311L262.824 478.483ZM262.441 479.028L229.715 456.028L202.959 494.097L244.614 514.836L262.441 479.028ZM244.703 514.88C264.479 524.726 288.492 516.676 298.338 496.9C308.184 477.124 300.134 453.111 280.358 443.265L262.531 479.073L244.703 514.88ZM42.5306 369.541L24.703 405.348L24.7925 405.393L42.6201 369.585L60.4477 333.778L60.3581 333.733L42.5306 369.541ZM42.6201 369.585L21.6441 403.644C58.7119 426.473 90.7473 443.091 116.386 451.033L128.221 412.824L140.057 374.615C124.401 369.766 99.369 357.558 63.5961 335.526L42.6201 369.585ZM128.221 412.824L116.386 451.033C132.498 456.024 147.225 463.636 160.749 473.994L185.07 442.237L209.392 410.481C188.411 394.412 165.238 382.416 140.057 374.615L128.221 412.824ZM185.07 442.237L160.749 473.994C181.084 489.567 202.633 501.335 225.414 508.25L237.034 469.975L248.653 431.7C236.655 428.058 223.562 421.333 209.392 410.481L185.07 442.237ZM237.034 469.975L225.414 508.25C234.043 510.87 240.165 512.785 243.992 514.048C244.926 514.356 245.652 514.602 246.196 514.791C246.77 514.99 246.994 515.076 246.971 515.067C246.955 515.061 246.763 514.987 246.452 514.856C246.199 514.749 245.494 514.448 244.56 513.98C244.13 513.764 241.396 512.426 238.291 510.025C237.022 509.044 232.881 505.794 229.253 500.199C225.598 494.562 217.998 478.77 227.017 460.655L262.824 478.483L298.632 496.311C307.663 478.172 300.057 462.351 296.38 456.679C292.731 451.05 288.55 447.761 287.224 446.736C284.007 444.249 281.091 442.803 280.411 442.463C278.344 441.426 276.461 440.696 275.673 440.393C273.686 439.629 271.335 438.827 269.054 438.075C264.284 436.501 257.414 434.359 248.653 431.7L237.034 469.975ZM262.824 478.483L230.098 455.483L229.715 456.028L262.441 479.028L295.167 502.029L295.55 501.483L262.824 478.483ZM262.441 479.028L244.614 514.836L244.703 514.88L262.531 479.073L280.358 443.265L280.269 443.221L262.441 479.028Z" fill="white"/>
<path d="M244.703 4.20128C264.479 -5.64462 288.492 2.40528 298.338 22.1812C308.184 41.9572 300.134 65.9704 280.358 75.8163L262.531 40.0088L244.703 4.20128ZM262.441 40.0534L280.269 75.8609L278.623 76.68L276.91 77.3448L262.441 40.0534ZM120.618 113.965L136.381 150.728L120.618 113.965ZM41.2823 147.033L6.13364 166.127L5.79291 165.5L5.47476 164.861L41.2823 147.033ZM42.6201 149.496L77.7687 130.402L97.5564 166.828L60.4476 185.304L42.6201 149.496ZM60.3581 185.348C40.5822 195.194 16.569 187.144 6.72305 167.368C-3.12283 147.592 4.92706 123.579 24.703 113.733L42.5306 149.541L60.3581 185.348ZM262.531 40.0088L280.358 75.8163L280.269 75.8609L262.441 40.0534L244.613 4.24585L244.703 4.20128L262.531 40.0088ZM262.441 40.0534L276.91 77.3448C237.751 92.5383 213.009 105.131 199.816 114.691L176.346 82.2998L152.876 49.9091C174.71 34.0885 207.364 18.5174 247.972 2.76188L262.441 40.0534ZM176.346 82.2998L199.816 114.691C179.933 129.098 158.776 141.126 136.381 150.728L120.618 113.965L104.855 77.202C121.738 69.9633 137.733 60.8817 152.876 49.9091L176.346 82.2998ZM120.618 113.965L136.381 150.728C116.057 159.443 96.8663 166.983 78.8347 173.307L65.5969 135.561L52.3591 97.815C68.4113 92.1854 85.9014 85.3288 104.855 77.202L120.618 113.965ZM65.5969 135.561L78.8347 173.307C70.5897 176.199 65.9081 178.095 63.8055 179.087C62.3686 179.765 63.9557 179.174 66.4492 177.289C67.4145 176.56 71.5443 173.441 75.1639 167.736C79.1552 161.446 85.578 146.255 77.0898 129.206L41.2823 147.033L5.47476 164.861C-3.22153 147.394 3.27249 131.718 7.61432 124.875C11.5844 118.618 16.344 114.879 18.2184 113.463C22.5301 110.205 27.0524 107.97 29.6681 106.736C35.6703 103.904 43.5621 100.9 52.3591 97.815L65.5969 135.561ZM41.2823 147.033L76.4309 127.94L77.7687 130.402L42.6201 149.496L7.47148 168.59L6.13364 166.127L41.2823 147.033ZM42.6201 149.496L60.4476 185.304L60.3581 185.348L42.5306 149.541L24.703 113.733L24.7925 113.689L42.6201 149.496Z" fill="white"/>
<path d="M464.703 553.733C484.479 543.887 508.492 551.937 518.338 571.713C528.184 591.489 520.134 615.502 500.358 625.348L482.531 589.541L464.703 553.733ZM482.441 589.585L462.243 555.059L463.407 554.378L464.613 553.778L482.441 589.585ZM399.336 637.836L419.192 672.56L399.336 637.836ZM342.507 667.291L325.583 631.048L342.507 667.291ZM286.304 686.513L278.13 647.357L286.304 686.513ZM260.817 695.631L225.486 714.384L225.242 713.925L225.01 713.459L260.817 695.631ZM262.62 699.028L297.952 680.275L317.199 716.538L280.448 734.835L262.62 699.028ZM280.358 734.88C260.582 744.726 236.569 736.676 226.723 716.9C216.877 697.124 224.927 673.111 244.703 663.265L262.531 699.072L280.358 734.88ZM482.531 589.541L500.358 625.348L500.269 625.393L482.441 589.585L464.613 553.778L464.703 553.733L482.531 589.541ZM482.441 589.585L502.639 624.111C465.76 645.686 437.919 661.851 419.192 672.56L399.336 637.836L379.479 603.112C397.852 592.606 425.415 576.604 462.243 555.059L482.441 589.585ZM399.336 637.836L419.192 672.56C399.687 683.713 379.766 694.039 359.432 703.534L342.507 667.291L325.583 631.048C343.919 622.485 361.884 613.174 379.479 603.112L399.336 637.836ZM342.507 667.291L359.432 703.534C337.714 713.676 316.046 721.167 294.477 725.669L286.304 686.513L278.13 647.357C292.828 644.289 308.629 638.965 325.583 631.048L342.507 667.291ZM286.304 686.513L294.477 725.669C285.75 727.491 281.333 728.747 279.807 729.293C278.467 729.773 281.386 728.956 285.253 726.151C287.046 724.851 292.488 720.711 296.461 712.935C298.649 708.652 300.526 702.979 300.702 696.241C300.882 689.377 299.25 683.076 296.625 677.804L260.817 695.631L225.01 713.459C218.664 700.714 219.872 687.006 225.221 676.537C229.511 668.141 235.571 663.358 238.282 661.392C243.988 657.253 249.95 655.009 252.858 653.969C259.827 651.476 268.725 649.32 278.13 647.357L286.304 686.513ZM260.817 695.631L296.149 676.879L297.952 680.275L262.62 699.028L227.288 717.781L225.486 714.384L260.817 695.631ZM262.62 699.028L280.448 734.835L280.358 734.88L262.531 699.072L244.703 663.265L244.793 663.22L262.62 699.028Z" fill="white"/>
</svg>
