<svg width="1000" height="1000" viewBox="0 0 1000 1000" fill="none" xmlns="http://www.w3.org/2000/svg">
<path d="M320 279.532C320 257.441 302.091 239.532 280 239.532C257.909 239.532 240 257.441 240 279.532H280H320ZM280 279.632H240V281.759L240.226 283.875L280 279.632ZM278.287 485.532L238.583 490.391L238.585 490.409L238.587 490.426L278.287 485.532ZM280 499.432H320V496.976L319.7 494.538L280 499.432ZM240 499.532C240 521.623 257.909 539.532 280 539.532C302.091 539.532 320 521.623 320 499.532H280H240ZM280 279.532H240V279.632H280H320V279.532H280ZM280 279.632L240.226 283.875C244.706 325.876 245.504 354.456 243.777 371.498L283.573 375.532L323.369 379.566C325.966 353.942 324.383 318.588 319.774 275.389L280 279.632ZM283.573 375.532L243.777 371.498C241.557 393.392 239.805 415.289 238.52 437.189L278.451 439.532L318.382 441.875C319.601 421.108 321.263 400.339 323.369 379.566L283.573 375.532ZM278.451 439.532L238.52 437.189C237.258 458.681 236.964 477.164 238.583 490.391L278.287 485.532L317.99 480.673C317.325 475.234 317.14 463.05 318.382 441.875L278.451 439.532ZM278.287 485.532L238.587 490.426L240.3 504.326L280 499.432L319.7 494.538L317.986 480.638L278.287 485.532ZM280 499.432H240V499.532H280H320V499.432H280Z" fill="#C44C00"/>
<path d="M760 499.532C760 477.441 742.091 459.532 720 459.532C697.909 459.532 680 477.441 680 499.532L720 499.532L760 499.532ZM720 499.632L759.874 502.8L760 501.219L760 499.632L720 499.632ZM716.149 705.532L677.582 716.14L677.591 716.175L677.601 716.211L716.149 705.532ZM720 719.432L760 719.432L760 713.994L758.548 708.753L720 719.432ZM680 719.532C680 741.623 697.909 759.532 720 759.532C742.091 759.532 760 741.623 760 719.532L720 719.532L680 719.532ZM720 499.532L680 499.532L680 499.632L720 499.632L760 499.632L760 499.532L720 499.532ZM720 499.632L680.126 496.464C676.679 539.844 676.507 575.981 681.216 602.521L720.601 595.532L759.986 588.543C757.124 572.416 756.552 544.62 759.874 502.8L720 499.632ZM720.601 595.532L681.216 602.521C684.082 618.667 683.765 634.726 680.211 650.995L719.289 659.532L758.368 668.069C764.134 641.671 764.692 615.063 759.986 588.543L720.601 595.532ZM719.289 659.532L680.211 650.995C675.491 672.599 672.183 696.511 677.582 716.14L716.149 705.532L754.717 694.924C755.117 696.377 754.541 695.252 754.916 689.756C755.263 684.668 756.297 677.547 758.368 668.069L719.289 659.532ZM716.149 705.532L677.601 716.211L681.452 730.111L720 719.432L758.548 708.753L754.698 694.853L716.149 705.532ZM720 719.432L680 719.432L680 719.532L720 719.532L760 719.532L760 719.432L720 719.432Z" fill="#C44C00"/>
<path d="M297.828 683.724C278.052 673.878 254.038 681.928 244.192 701.704C234.347 721.48 242.396 745.493 262.172 755.339L280 719.532L297.828 683.724ZM280.09 719.576L262.262 755.384L262.471 755.488L262.681 755.59L280.09 719.576ZM500.298 828.465L533.078 851.388L534.781 848.953L536.106 846.292L500.298 828.465ZM499.91 829.019L467.131 806.095L440.527 844.137L482.083 864.827L499.91 829.019ZM482.172 864.871C501.948 874.717 525.962 866.667 535.808 846.891C545.653 827.115 537.604 803.102 517.828 793.256L500 829.064L482.172 864.871ZM280 719.532L262.172 755.339L262.262 755.384L280.09 719.576L297.917 683.769L297.828 683.724L280 719.532ZM280.09 719.576L262.681 755.59C300.781 774.006 327.723 788.159 344.355 798.238L365.086 764.03L385.817 729.821C365.834 717.711 336.112 702.228 297.498 683.563L280.09 719.576ZM365.086 764.03L344.355 798.238C364.567 810.487 385.669 820.977 407.638 829.698L422.395 792.519L437.152 755.341C419.324 748.264 402.219 739.761 385.817 729.821L365.086 764.03ZM422.395 792.519L407.638 829.698C426.784 837.298 443.863 844.768 458.936 852.093L476.42 816.116L493.903 780.14C476.74 771.799 457.803 763.538 437.152 755.341L422.395 792.519ZM476.42 816.116L458.936 852.093C466.929 855.977 472.583 858.787 476.104 860.608C476.963 861.052 477.626 861.402 478.12 861.668C478.641 861.949 478.835 862.061 478.801 862.042C478.779 862.029 478.596 861.922 478.304 861.74C478.063 861.588 477.421 861.181 476.581 860.575C476.142 860.258 473.802 858.593 471.243 855.899C470.129 854.727 466.995 851.341 464.408 846.087C462.13 841.461 456.334 827.02 464.491 810.637L500.298 828.465L536.106 846.292C544.275 829.885 538.476 815.411 536.178 810.746C533.571 805.452 530.402 802.02 529.237 800.793C526.575 797.992 524.069 796.189 523.4 795.706C521.524 794.352 519.784 793.331 519.034 792.895C517.173 791.812 514.973 790.645 512.852 789.548C508.413 787.252 502.029 784.088 493.903 780.14L476.42 816.116ZM500.298 828.465L467.519 805.541L467.131 806.095L499.91 829.019L532.69 851.943L533.078 851.388L500.298 828.465ZM499.91 829.019L482.083 864.827L482.172 864.871L500 829.064L517.828 793.256L517.738 793.212L499.91 829.019Z" fill="#C44C00"/>
<path d="M517.828 134.192C498.052 124.347 474.038 132.396 464.192 152.172C454.347 171.948 462.396 195.962 482.172 205.808L500 170L517.828 134.192ZM500.09 170.045L482.262 205.852L482.471 205.956L482.681 206.058L500.09 170.045ZM720.298 278.933L753.078 301.857L754.781 299.421L756.106 296.76L720.298 278.933ZM719.91 279.487L687.131 256.564L660.527 294.605L702.083 315.295L719.91 279.487ZM702.172 315.339C721.948 325.185 745.962 317.135 755.808 297.359C765.653 277.584 757.604 253.57 737.828 243.724L720 279.532L702.172 315.339ZM500 170L482.172 205.808L482.262 205.852L500.09 170.045L517.917 134.237L517.828 134.192L500 170ZM500.09 170.045L482.681 206.058C520.781 224.474 547.723 238.627 564.355 248.706L585.086 214.498L605.817 180.289C585.834 168.179 556.112 152.697 517.498 134.031L500.09 170.045ZM585.086 214.498L564.355 248.706C584.567 260.956 605.669 271.446 627.638 280.166L642.395 242.988L657.152 205.809C639.324 198.733 622.219 190.229 605.817 180.289L585.086 214.498ZM642.395 242.988L627.638 280.166C646.784 287.766 663.863 295.236 678.936 302.561L696.42 266.585L713.903 230.608C696.74 222.267 677.803 214.006 657.152 205.809L642.395 242.988ZM696.42 266.585L678.936 302.561C686.929 306.445 692.583 309.256 696.104 311.077C696.963 311.521 697.626 311.87 698.12 312.136C698.641 312.417 698.835 312.53 698.801 312.51C698.779 312.497 698.596 312.391 698.304 312.208C698.063 312.057 697.421 311.649 696.581 311.043C696.142 310.726 693.802 309.061 691.243 306.367C690.129 305.195 686.995 301.81 684.408 296.555C682.13 291.929 676.334 277.488 684.491 261.105L720.298 278.933L756.106 296.76C764.275 280.353 758.476 265.879 756.178 261.214C753.571 255.92 750.402 252.488 749.237 251.261C746.575 248.46 744.069 246.657 743.4 246.174C741.524 244.82 739.784 243.799 739.034 243.363C737.173 242.28 734.973 241.113 732.852 240.016C728.413 237.721 722.029 234.556 713.903 230.608L696.42 266.585ZM720.298 278.933L687.519 256.009L687.131 256.564L719.91 279.487L752.69 302.411L753.078 301.857L720.298 278.933ZM719.91 279.487L702.083 315.295L702.172 315.339L720 279.532L737.828 243.724L737.738 243.68L719.91 279.487Z" fill="#C44C00"/>
<path d="M517.828 354.192C498.052 344.347 474.038 352.396 464.192 372.172C454.347 391.948 462.396 415.962 482.172 425.808L500 390L517.828 354.192ZM500.09 390.045L521.779 356.436L519.909 355.229L517.917 354.237L500.09 390.045ZM641.893 463.996L628.034 501.519L641.893 463.996ZM721.031 497.462L756.035 516.819L756.453 516.063L756.838 515.289L721.031 497.462ZM719.91 499.487L684.907 480.13L664.694 516.68L702.083 535.295L719.91 499.487ZM702.172 535.339C721.948 545.185 745.962 537.135 755.808 517.359C765.653 497.584 757.604 473.57 737.828 463.724L720 499.532L702.172 535.339ZM500 390L482.172 425.808L482.262 425.852L500.09 390.045L517.917 354.237L517.828 354.192L500 390ZM500.09 390.045L478.4 423.653C514.708 447.085 543.979 464.451 565.447 474.866L582.906 438.877L600.364 402.888C583.442 394.679 557.503 379.49 521.779 356.436L500.09 390.045ZM582.906 438.877L565.447 474.866C585.824 484.75 606.688 493.634 628.034 501.519L641.893 463.996L655.751 426.474C636.839 419.488 618.378 411.626 600.364 402.888L582.906 438.877ZM641.893 463.996L628.034 501.519C647.847 508.836 665.848 515.778 682.057 522.344L697.074 485.27L712.092 448.196C694.985 441.266 676.198 434.025 655.751 426.474L641.893 463.996ZM697.074 485.27L682.057 522.344C690.155 525.624 695.012 527.805 697.415 529.027C698.931 529.799 697.909 529.407 696.003 527.985C695.362 527.507 691.834 524.917 688.452 520.233C685.868 516.655 675.14 499.887 685.223 479.634L721.031 497.462L756.838 515.289C767.094 494.691 756.266 477.494 753.312 473.403C749.56 468.206 745.39 465.02 743.837 463.861C740.107 461.078 736.176 458.99 733.7 457.729C728.117 454.888 720.652 451.663 712.092 448.196L697.074 485.27ZM721.031 497.462L686.027 478.104L684.907 480.13L719.91 499.487L754.914 518.845L756.035 516.819L721.031 497.462ZM719.91 499.487L702.083 535.295L702.172 535.339L720 499.532L737.828 463.724L737.738 463.68L719.91 499.487Z" fill="#C44C00"/>
<path d="M297.828 463.724C278.052 453.879 254.038 461.928 244.192 481.704C234.347 501.48 242.396 525.494 262.172 535.339L280 499.532L297.828 463.724ZM280.09 499.577L301.066 465.518L299.531 464.572L297.917 463.769L280.09 499.577ZM500.294 608.474L533.019 631.475L534.755 629.005L536.101 626.302L500.294 608.474ZM499.91 609.019L467.185 586.019L440.429 624.088L482.083 644.827L499.91 609.019ZM482.172 644.871C501.948 654.717 525.962 646.667 535.808 626.891C545.653 607.116 537.604 583.102 517.828 573.256L500 609.064L482.172 644.871ZM280 499.532L262.172 535.339L262.262 535.384L280.09 499.577L297.917 463.769L297.828 463.724L280 499.532ZM280.09 499.577L259.114 533.635C296.181 556.465 328.217 573.083 353.855 581.024L365.69 542.815L377.526 504.606C361.87 499.757 336.838 487.549 301.066 465.518L280.09 499.577ZM365.69 542.815L353.855 581.024C369.967 586.015 384.694 593.627 398.219 603.985L422.54 572.228L446.861 540.472C425.88 524.404 402.708 512.407 377.526 504.606L365.69 542.815ZM422.54 572.228L398.219 603.985C418.553 619.558 440.103 631.326 462.884 638.242L474.503 599.966L486.122 561.691C474.125 558.049 461.032 551.325 446.861 540.472L422.54 572.228ZM474.503 599.966L462.884 638.242C471.512 640.861 477.635 642.777 481.462 644.039C482.396 644.347 483.122 644.593 483.666 644.782C484.24 644.982 484.463 645.067 484.441 645.058C484.424 645.052 484.233 644.979 483.921 644.847C483.668 644.74 482.964 644.439 482.029 643.971C481.6 643.756 478.865 642.417 475.761 640.017C474.492 639.035 470.35 635.785 466.723 630.19C463.068 624.553 455.467 608.761 464.486 590.647L500.294 608.474L536.101 626.302C545.132 608.163 537.527 592.342 533.85 586.671C530.2 581.041 526.019 577.752 524.694 576.727C521.477 574.24 518.56 572.795 517.88 572.454C515.813 571.418 513.93 570.687 513.143 570.384C511.155 569.62 508.805 568.818 506.524 568.066C501.754 566.492 494.883 564.351 486.122 561.691L474.503 599.966ZM500.294 608.474L467.568 585.474L467.185 586.019L499.91 609.019L532.636 632.02L533.019 631.475L500.294 608.474ZM499.91 609.019L482.083 644.827L482.172 644.871L500 609.064L517.828 573.256L517.738 573.212L499.91 609.019Z" fill="#C44C00"/>
<path d="M482.172 134.192C501.948 124.347 525.962 132.396 535.808 152.172C545.653 171.948 537.604 195.962 517.828 205.808L500 170L482.172 134.192ZM499.91 170.045L517.738 205.852L516.093 206.671L514.379 207.336L499.91 170.045ZM358.087 243.956L373.85 280.72L358.087 243.956ZM278.752 277.025L243.603 296.118L243.262 295.491L242.944 294.852L278.752 277.025ZM280.09 279.487L315.238 260.393L335.026 296.819L297.917 315.295L280.09 279.487ZM297.828 315.339C278.052 325.185 254.038 317.135 244.192 297.359C234.347 277.584 242.396 253.57 262.172 243.724L280 279.532L297.828 315.339ZM500 170L517.828 205.808L517.738 205.852L499.91 170.045L482.083 134.237L482.172 134.192L500 170ZM499.91 170.045L514.379 207.336C475.22 222.529 450.478 235.123 437.285 244.682L413.815 212.291L390.346 179.9C412.179 164.08 444.834 148.509 485.442 132.753L499.91 170.045ZM413.815 212.291L437.285 244.682C417.402 259.089 396.245 271.118 373.85 280.72L358.087 243.956L342.325 207.193C359.207 199.955 375.202 190.873 390.346 179.9L413.815 212.291ZM358.087 243.956L373.85 280.72C353.526 289.434 334.336 296.974 316.304 303.298L303.066 265.552L289.828 227.806C305.881 222.177 323.371 215.32 342.325 207.193L358.087 243.956ZM303.066 265.552L316.304 303.298C308.059 306.19 303.378 308.086 301.275 309.078C299.838 309.756 301.425 309.165 303.919 307.28C304.884 306.551 309.014 303.432 312.633 297.727C316.625 291.437 323.047 276.246 314.559 259.197L278.752 277.025L242.944 294.852C234.248 277.385 240.742 261.709 245.084 254.866C249.054 248.609 253.813 244.871 255.688 243.454C260 240.196 264.522 237.962 267.137 236.727C273.14 233.895 281.031 230.891 289.828 227.806L303.066 265.552ZM278.752 277.025L313.9 257.931L315.238 260.393L280.09 279.487L244.941 298.581L243.603 296.118L278.752 277.025ZM280.09 279.487L297.917 315.295L297.828 315.339L280 279.532L262.172 243.724L262.262 243.68L280.09 279.487Z" fill="#C44C00"/>
<path d="M702.172 683.724C721.948 673.878 745.962 681.928 755.808 701.704C765.653 721.48 757.604 745.493 737.828 755.339L720 719.532L702.172 683.724ZM719.91 719.576L699.713 685.05L700.876 684.37L702.083 683.769L719.91 719.576ZM636.805 767.827L656.661 802.551L636.805 767.827ZM579.977 797.282L563.052 761.039L579.977 797.282ZM523.773 816.504L515.6 777.348L523.773 816.504ZM498.287 825.623L462.955 844.375L462.711 843.916L462.479 843.45L498.287 825.623ZM500.09 829.019L535.421 810.266L554.668 846.529L517.917 864.827L500.09 829.019ZM517.828 864.871C498.052 874.717 474.038 866.667 464.192 846.891C454.347 827.115 462.396 803.102 482.172 793.256L500 829.064L517.828 864.871ZM720 719.532L737.828 755.339L737.738 755.384L719.91 719.576L702.083 683.769L702.172 683.724L720 719.532ZM719.91 719.576L740.108 754.102C703.229 775.677 675.389 791.842 656.661 802.551L636.805 767.827L616.949 733.104C635.321 722.598 662.884 706.595 699.713 685.05L719.91 719.576ZM636.805 767.827L656.661 802.551C637.157 813.704 617.236 824.03 596.901 833.526L579.977 797.282L563.052 761.039C581.389 752.477 599.353 743.165 616.949 733.104L636.805 767.827ZM579.977 797.282L596.901 833.526C575.183 843.667 553.515 851.158 531.947 855.66L523.773 816.504L515.6 777.348C530.298 774.28 546.098 768.956 563.052 761.039L579.977 797.282ZM523.773 816.504L531.947 855.66C523.219 857.482 518.802 858.739 517.277 859.285C515.936 859.764 518.855 858.947 522.723 856.142C524.515 854.842 529.957 850.703 533.93 842.927C536.119 838.643 537.995 832.97 538.172 826.232C538.352 819.368 536.719 813.068 534.094 807.795L498.287 825.623L462.479 843.45C456.134 830.705 457.341 816.997 462.69 806.528C466.98 798.132 473.04 793.349 475.752 791.383C481.458 787.244 487.42 785.001 490.327 783.96C497.297 781.467 506.194 779.311 515.6 777.348L523.773 816.504ZM498.287 825.623L533.619 806.87L535.421 810.266L500.09 829.019L464.758 847.772L462.955 844.375L498.287 825.623ZM500.09 829.019L517.917 864.827L517.828 864.871L500 829.064L482.172 793.256L482.262 793.212L500.09 829.019Z" fill="#C44C00"/>
</svg>
