<svg width="1000" height="1000" viewBox="0 0 1000 1000" fill="none" xmlns="http://www.w3.org/2000/svg">
<path d="M320 300C320 288.954 311.046 280 300 280C288.954 280 280 288.954 280 300H300H320ZM300 300.1H280V300.669L280.032 301.236L300 300.1ZM299.143 490L279.216 491.707L279.217 491.716L279.218 491.724L299.143 490ZM300 499.9H320V499.036L319.926 498.176L300 499.9ZM280 500C280 511.046 288.954 520 300 520C311.046 520 320 511.046 320 500H300H280ZM300 300H280V300.1H300H320V300H300ZM300 300.1L280.032 301.236C282.295 341.005 282.835 370.069 281.815 388.92L301.786 390L321.757 391.08C322.901 369.931 322.249 339.061 319.968 298.964L300 300.1ZM301.786 390L281.815 388.92C280.726 409.071 279.866 429.223 279.235 449.374L299.225 450L319.216 450.626C319.837 430.777 320.684 410.929 321.757 391.08L301.786 390ZM299.225 450L279.235 449.374C278.615 469.181 278.529 483.683 279.216 491.707L299.143 490L319.07 488.293C318.615 482.984 318.584 470.819 319.216 450.626L299.225 450ZM299.143 490L279.218 491.724L280.074 501.624L300 499.9L319.926 498.176L319.069 488.276L299.143 490ZM300 499.9H280V500H300H320V499.9H300Z" fill="#C44C00"/>
<path d="M720 500C720 488.954 711.046 480 700 480C688.954 480 680 488.954 680 500L700 500L720 500ZM700 500.1L719.982 500.947L720 500.524L720 500.1L700 500.1ZM698.075 690L678.435 693.781L678.439 693.8L678.442 693.818L698.075 690ZM700 699.9L720 699.9L720 697.973L719.632 696.082L700 699.9ZM680 700C680 711.046 688.954 720 700 720C711.046 720 720 711.046 720 700L700 700L680 700ZM700 500L680 500L680 500.1L700 500.1L720 500.1L720 500L700 500ZM700 500.1L680.018 499.253C678.317 539.392 678.363 570.474 680.39 591.884L700.301 590L720.212 588.116C718.452 569.526 718.298 540.674 719.982 500.947L700 500.1ZM700.301 590L680.39 591.884C682.15 610.484 681.947 629.076 679.779 647.686L699.645 650L719.51 652.314C722.002 630.924 722.237 609.516 720.212 588.116L700.301 590ZM699.645 650L679.779 647.686C678.581 657.966 677.809 666.851 677.52 674.216C677.244 681.243 677.345 688.117 678.435 693.781L698.075 690L717.714 686.219C717.521 685.216 717.242 682.09 717.489 675.784C717.723 669.816 718.378 662.034 719.51 652.314L699.645 650ZM698.075 690L678.442 693.818L680.368 703.718L700 699.9L719.632 696.082L717.707 686.182L698.075 690ZM700 699.9L680 699.9L680 700L700 700L720 700L720 699.9L700 699.9Z" fill="#C44C00"/>
<path d="M308.944 682.111C299.065 677.172 287.051 681.176 282.111 691.056C277.172 700.935 281.176 712.949 291.056 717.889L300 700L308.944 682.111ZM300.089 700.045L291.145 717.933L291.201 717.961L291.257 717.989L300.089 700.045ZM380.071 741.104L370.343 758.579L380.071 741.104ZM500.15 799.701L514.728 813.393L516.73 811.261L518.038 808.645L500.15 799.701ZM499.911 799.955L485.332 786.263L466.95 805.836L490.966 817.844L499.911 799.955ZM491.056 817.889C500.935 822.828 512.949 818.824 517.889 808.944C522.828 799.065 518.824 787.051 508.944 782.111L500 800L491.056 817.889ZM300 700L291.056 717.889L291.145 717.933L300.089 700.045L309.034 682.156L308.944 682.111L300 700ZM300.089 700.045L291.257 717.989C327.018 735.591 353.309 749.097 370.343 758.579L380.071 741.104L389.798 723.629C371.849 713.638 344.819 699.77 308.922 682.101L300.089 700.045ZM380.071 741.104L370.343 758.579C388.355 768.606 406.779 777.81 425.613 786.192L433.745 767.92L441.877 749.648C424.13 741.75 406.771 733.077 389.798 723.629L380.071 741.104ZM433.745 767.92L425.613 786.192C443.748 794.263 459.164 801.432 471.902 807.707L480.74 789.766L489.579 771.825C476.238 765.253 460.324 757.858 441.877 749.648L433.745 767.92ZM480.74 789.766L471.902 807.707C478.401 810.909 483.166 813.287 486.259 814.871C487.836 815.678 488.821 816.198 489.338 816.483C489.656 816.658 489.515 816.59 489.174 816.374C489.106 816.331 488.358 815.866 487.449 815.124C487.126 814.861 485.795 813.781 484.438 812.06C483.794 811.244 482.336 809.288 481.306 806.39C480.248 803.418 478.968 797.342 482.261 790.756L500.15 799.701L518.038 808.645C521.334 802.053 520.054 795.97 518.993 792.988C517.96 790.081 516.495 788.114 515.842 787.286C514.465 785.54 513.102 784.43 512.734 784.129C511.735 783.314 510.845 782.751 510.584 782.586C509.857 782.126 509.126 781.716 508.647 781.452C507.572 780.86 506.143 780.113 504.485 779.264C501.108 777.536 496.119 775.047 489.579 771.825L480.74 789.766ZM500.15 799.701L485.571 786.009L485.332 786.263L499.911 799.955L514.489 813.647L514.728 813.393L500.15 799.701ZM499.911 799.955L490.966 817.844L491.056 817.889L500 800L508.944 782.111L508.855 782.067L499.911 799.955Z" fill="#C44C00"/>
<path d="M508.944 182.111C499.065 177.172 487.051 181.176 482.111 191.056C477.172 200.935 481.176 212.949 491.056 217.889L500 200L508.944 182.111ZM500.089 200.045L491.145 217.933L491.201 217.961L491.257 217.989L500.089 200.045ZM580.071 241.104L570.343 258.579L580.071 241.104ZM700.15 299.701L714.728 313.393L716.73 311.261L718.038 308.645L700.15 299.701ZM699.911 299.955L685.332 286.263L666.95 305.836L690.966 317.844L699.911 299.955ZM691.056 317.889C700.935 322.828 712.949 318.824 717.889 308.944C722.828 299.065 718.824 287.051 708.944 282.111L700 300L691.056 317.889ZM500 200L491.056 217.889L491.145 217.933L500.089 200.045L509.034 182.156L508.944 182.111L500 200ZM500.089 200.045L491.257 217.989C527.018 235.591 553.309 249.097 570.343 258.579L580.071 241.104L589.798 223.629C571.849 213.638 544.819 199.77 508.922 182.101L500.089 200.045ZM580.071 241.104L570.343 258.579C588.355 268.606 606.779 277.81 625.613 286.192L633.745 267.92L641.877 249.648C624.13 241.75 606.771 233.077 589.798 223.629L580.071 241.104ZM633.745 267.92L625.613 286.192C643.748 294.263 659.164 301.432 671.902 307.707L680.74 289.766L689.579 271.825C676.238 265.253 660.324 257.858 641.877 249.648L633.745 267.92ZM680.74 289.766L671.902 307.707C678.401 310.909 683.166 313.287 686.259 314.871C687.836 315.678 688.821 316.198 689.338 316.483C689.656 316.658 689.515 316.59 689.174 316.374C689.106 316.331 688.358 315.866 687.449 315.124C687.126 314.861 685.795 313.781 684.438 312.06C683.794 311.244 682.336 309.288 681.306 306.39C680.248 303.418 678.968 297.342 682.261 290.756L700.15 299.701L718.038 308.645C721.334 302.053 720.054 295.97 718.993 292.988C717.96 290.081 716.495 288.114 715.842 287.286C714.465 285.54 713.102 284.43 712.734 284.129C711.735 283.314 710.845 282.751 710.584 282.586C709.857 282.126 709.126 281.716 708.647 281.452C707.572 280.86 706.143 280.113 704.485 279.264C701.108 277.536 696.119 275.047 689.579 271.825L680.74 289.766ZM700.15 299.701L685.571 286.009L685.332 286.263L699.911 299.955L714.489 313.647L714.728 313.393L700.15 299.701ZM699.911 299.955L690.966 317.844L691.056 317.889L700 300L708.944 282.111L708.855 282.067L699.911 299.955Z" fill="#C44C00"/>
<path d="M508.944 382.111C499.065 377.172 487.051 381.176 482.111 391.056C477.172 400.935 481.176 412.949 491.056 417.889L500 400L508.944 382.111ZM500.089 400.045L510.081 382.719L509.566 382.422L509.034 382.156L500.089 400.045ZM633.493 468.424L625.598 486.799L633.493 468.424ZM681.069 489.109L689.152 470.815L681.069 489.109ZM700.517 498.966L717.569 509.418L718.02 508.682L718.406 507.91L700.517 498.966ZM699.911 499.955L682.859 489.503L671.464 508.093L690.966 517.844L699.911 499.955ZM691.056 517.889C700.935 522.828 712.949 518.824 717.889 508.944C722.828 499.065 718.824 487.051 708.944 482.111L700 500L691.056 517.889ZM500 400L491.056 417.889L491.145 417.933L500.089 400.045L509.034 382.156L508.944 382.111L500 400ZM500.089 400.045L490.098 417.37C524.835 437.403 551.589 452.085 570.131 461.229L578.977 443.292L587.823 425.355C570.49 416.807 544.652 402.657 510.081 382.719L500.089 400.045ZM578.977 443.292L570.131 461.229C588.382 470.23 606.871 478.753 625.598 486.799L633.493 468.424L641.388 450.048C623.302 442.277 605.447 434.046 587.823 425.355L578.977 443.292ZM633.493 468.424L625.598 486.799C643.963 494.69 659.755 501.557 672.985 507.403L681.069 489.109L689.152 470.815C675.761 464.898 659.836 457.974 641.388 450.048L633.493 468.424ZM681.069 489.109L672.985 507.403C679.569 510.312 684.121 512.43 686.872 513.824C688.35 514.573 688.775 514.847 688.624 514.749C688.543 514.696 688.31 514.544 687.985 514.299C687.7 514.086 687.066 513.595 686.308 512.851C685.743 512.295 684.026 510.568 682.625 507.774C681.223 504.979 678.683 497.913 682.629 490.021L700.517 498.966L718.406 507.91C722.395 499.932 719.844 492.759 718.379 489.838C716.913 486.918 715.08 485.043 714.344 484.32C712.701 482.705 711.055 481.62 710.367 481.175C708.682 480.083 706.719 479.039 704.955 478.145C701.223 476.253 695.879 473.788 689.152 470.815L681.069 489.109ZM700.517 498.966L683.466 488.513L682.859 489.503L699.911 499.955L716.962 510.407L717.569 509.418L700.517 498.966ZM699.911 499.955L690.966 517.844L691.056 517.889L700 500L708.944 482.111L708.855 482.067L699.911 499.955Z" fill="#C44C00"/>
<path d="M308.944 482.111C299.065 477.172 287.051 481.176 282.111 491.056C277.172 500.935 281.176 512.949 291.056 517.889L300 500L308.944 482.111ZM300.089 500.045L309.884 482.607L309.464 482.371L309.034 482.156L300.089 500.045ZM500.147 599.705L514.665 613.461L516.708 611.306L518.036 608.65L500.147 599.705ZM499.911 599.955L485.392 586.199L466.839 605.78L490.966 617.844L499.911 599.955ZM491.056 617.889C500.935 622.828 512.949 618.824 517.889 608.944C522.828 599.065 518.824 587.051 508.944 582.111L500 600L491.056 617.889ZM300 500L291.056 517.889L291.145 517.933L300.089 500.045L309.034 482.156L308.944 482.111L300 500ZM300.089 500.045L290.295 517.482C325.328 537.16 353.047 551.19 373.013 559.094L380.374 540.498L387.736 521.902C370.37 515.027 344.565 502.087 309.884 482.607L300.089 500.045ZM380.374 540.498L373.013 559.094C390.499 566.016 407.184 574.531 423.08 584.647L433.818 567.775L444.556 550.902C426.526 539.427 407.581 529.758 387.736 521.902L380.374 540.498ZM433.818 567.775L423.08 584.647C440.806 595.929 457.386 604.631 472.733 610.407L479.779 591.689L486.824 572.971C474.817 568.452 460.755 561.211 444.556 550.902L433.818 567.775ZM479.779 591.689L472.733 610.407C479.552 612.973 484.554 614.885 487.804 616.165C489.461 616.817 490.5 617.24 491.049 617.476C491.386 617.621 491.244 617.568 490.887 617.389C490.824 617.358 490.021 616.964 489.032 616.308C488.7 616.088 487.193 615.099 485.61 613.427C484.875 612.65 483.084 610.66 481.758 607.558C480.316 604.188 478.783 597.712 482.259 590.761L500.147 599.705L518.036 608.65C521.514 601.692 519.981 595.21 518.536 591.831C517.206 588.72 515.408 586.72 514.662 585.932C513.059 584.238 511.517 583.223 511.138 582.972C510.053 582.252 509.101 581.776 508.836 581.642C508.073 581.259 507.309 580.926 506.81 580.712C505.687 580.23 504.191 579.628 502.453 578.943C498.914 577.551 493.683 575.553 486.824 572.971L479.779 591.689ZM500.147 599.705L485.629 585.95L485.392 586.199L499.911 599.955L514.429 613.711L514.665 613.461L500.147 599.705ZM499.911 599.955L490.966 617.844L491.056 617.889L500 600L508.944 582.111L508.855 582.067L499.911 599.955Z" fill="#C44C00"/>
<path d="M491.056 182.111C500.935 177.172 512.949 181.176 517.889 191.056C522.828 200.935 518.824 212.949 508.944 217.889L500 200L491.056 182.111ZM499.911 200.045L508.855 217.933L508.416 218.153L507.966 218.351L499.911 200.045ZM366.497 268.404L374.894 286.556L366.497 268.404ZM299.374 298.747L282.168 308.943L281.804 308.33L281.485 307.692L299.374 298.747ZM300.089 299.955L317.295 289.76L328.245 308.238L309.034 317.844L300.089 299.955ZM308.944 317.889C299.065 322.828 287.051 318.824 282.111 308.944C277.172 299.065 281.176 287.051 291.056 282.111L300 300L308.944 317.889ZM500 200L508.944 217.889L508.855 217.933L499.911 200.045L490.966 182.156L491.056 182.111L500 200ZM499.911 200.045L507.966 218.351C471.561 234.372 445.748 247.244 429.87 257.029L419.378 240.002L408.885 222.975C427.195 211.692 455.071 197.926 491.855 181.739L499.911 200.045ZM419.378 240.002L429.87 257.029C412.103 267.977 393.777 277.821 374.894 286.556L366.497 268.404L358.1 250.252C375.537 242.186 392.465 233.094 408.885 222.975L419.378 240.002ZM366.497 268.404L374.894 286.556C356.547 295.043 340.417 302.126 326.542 307.774L319.002 289.25L311.462 270.726C324.593 265.381 340.127 258.567 358.1 250.252L366.497 268.404ZM319.002 289.25L326.542 307.774C319.877 310.487 315.351 312.457 312.679 313.75C311.218 314.457 310.959 314.653 311.303 314.429C311.303 314.428 312.656 313.589 314.168 311.968C314.883 311.201 316.661 309.19 317.935 306.019C319.36 302.473 320.512 296.303 317.262 289.803L299.374 298.747L281.485 307.692C278.183 301.087 279.338 294.795 280.819 291.108C282.149 287.796 284.039 285.626 284.919 284.682C286.762 282.707 288.662 281.44 289.429 280.94C291.304 279.715 293.446 278.62 295.257 277.744C299.127 275.871 304.624 273.509 311.462 270.726L319.002 289.25ZM299.374 298.747L316.58 288.552L317.295 289.76L300.089 299.955L282.883 310.151L282.168 308.943L299.374 298.747ZM300.089 299.955L309.034 317.844L308.944 317.889L300 300L291.056 282.111L291.145 282.067L300.089 299.955Z" fill="#C44C00"/>
<path d="M691.056 682.111C700.935 677.172 712.949 681.176 717.889 691.056C722.828 700.935 718.824 712.949 708.944 717.889L700 700L691.056 682.111ZM699.911 700.045L690.329 682.489L690.644 682.317L690.966 682.156L699.911 700.045ZM620.878 743.002L630.367 760.607L620.878 743.002ZM567.445 770.3L576.149 788.306L567.445 770.3ZM499.14 798.281L481.741 808.143L481.484 807.69L481.252 807.225L499.14 798.281ZM500.089 799.955L517.489 790.094L527.877 808.422L509.034 817.844L500.089 799.955ZM508.944 817.889C499.065 822.828 487.051 818.824 482.111 808.944C477.172 799.065 481.176 787.051 491.056 782.111L500 800L508.944 817.889ZM700 700L708.944 717.889L708.855 717.933L699.911 700.045L690.966 682.156L691.056 682.111L700 700ZM699.911 700.045L709.492 717.6C674.411 736.748 648.029 751.088 630.367 760.607L620.878 743.002L611.389 725.396C628.954 715.928 655.261 701.63 690.329 682.489L699.911 700.045ZM620.878 743.002L630.367 760.607C612.494 770.24 594.422 779.473 576.149 788.306L567.445 770.3L558.74 752.293C576.484 743.716 594.033 734.75 611.389 725.396L620.878 743.002ZM567.445 770.3L576.149 788.306C557.549 797.297 540.583 804.268 525.336 809.045L519.357 789.96L513.378 770.874C526.231 766.848 541.324 760.712 558.74 752.293L567.445 770.3ZM519.357 789.96L525.336 809.045C518.426 811.21 513.91 812.793 511.377 813.836C509.933 814.43 510.041 814.484 510.812 813.994C511.003 813.872 512.921 812.7 514.824 810.345C515.832 809.098 517.584 806.61 518.509 802.946C519.553 798.818 519.327 793.933 517.029 789.337L499.14 798.281L481.252 807.225C475.918 796.558 481.702 787.693 483.712 785.204C485.929 782.461 488.389 780.85 489.352 780.238C491.663 778.769 494.228 777.639 496.152 776.847C500.359 775.115 506.237 773.111 513.378 770.874L519.357 789.96ZM499.14 798.281L516.54 788.419L517.489 790.094L500.089 799.955L482.69 809.817L481.741 808.143L499.14 798.281ZM500.089 799.955L509.034 817.844L508.944 817.889L500 800L491.056 782.111L491.145 782.067L500.089 799.955Z" fill="#C44C00"/>
</svg>
